HIERARCHY
ROOT Hips
{
 OFFSET 0.000000 0.000000 0.000000
 CHANNELS 6 Xposition Yposition Zposition Yrotation Xrotation Zrotation
 JOINT Chest
 {
  OFFSET 0.000000 13.173100 -0.061900
  CHANNELS 3 Yrotation Xrotation Zrotation
  JOINT Chest2
  {
   OFFSET 0.000000 8.040800 0.126200
   CHANNELS 3 Yrotation Xrotation Zrotation
   JOINT Chest3
   {
    OFFSET 0.000000 7.994400 0.000000
    CHANNELS 3 Yrotation Xrotation Zrotation
    JOINT Chest4
    {
     OFFSET 0.000000 7.986200 0.000000
     CHANNELS 3 Yrotation Xrotation Zrotation
     JOINT Neck
     {
      OFFSET 0.000000 12.259400 0.000000
      CHANNELS 3 Yrotation Xrotation Zrotation
      JOINT Head
      {
       OFFSET 0.000000 7.518700 0.267100
       CHANNELS 3 Yrotation Xrotation Zrotation
       End Site
       {
        OFFSET 0.000000 13.617700 0.141000
       }
      }
     }
     JOINT RightCollar
     {
      OFFSET -2.983800 8.314300 0.000000
      CHANNELS 3 Yrotation Xrotation Zrotation
      JOINT RightShoulder
      {
       OFFSET -16.133400 0.000000 0.000000
       CHANNELS 3 Yrotation Xrotation Zrotation
       JOINT RightElbow
       {
        OFFSET 0.000000 -29.822100 0.000000
        CHANNELS 3 Yrotation Xrotation Zrotation
        JOINT RightWrist
        {
         OFFSET 0.000000 -24.437700 0.010900
         CHANNELS 3 Yrotation Xrotation Zrotation
         End Site
         {
          OFFSET 0.000000 -18.312300 0.000000
         }
        }
       }
      }
     }
     JOINT LeftCollar
     {
      OFFSET 2.983800 8.314300 0.000000
      CHANNELS 3 Yrotation Xrotation Zrotation
      JOINT LeftShoulder
      {
       OFFSET 16.133400 0.000000 0.000000
       CHANNELS 3 Yrotation Xrotation Zrotation
       JOINT LeftElbow
       {
        OFFSET 0.000000 -29.822100 0.000000
        CHANNELS 3 Yrotation Xrotation Zrotation
        JOINT LeftWrist
        {
         OFFSET 0.000000 -24.437700 0.010900
         CHANNELS 3 Yrotation Xrotation Zrotation
         End Site
         {
          OFFSET 0.000000 -18.312300 0.000000
         }
        }
       }
      }
     }
    }
   }
  }
 }
 JOINT RightHip
 {
  OFFSET -11.206700 0.306200 0.030900
  CHANNELS 3 Yrotation Xrotation Zrotation
  JOINT RightKnee
  {
   OFFSET 0.000000 -57.334900 0.009400
   CHANNELS 3 Yrotation Xrotation Zrotation
   JOINT RightAnkle
   {
    OFFSET 0.000000 -43.376200 0.036600
    CHANNELS 3 Yrotation Xrotation Zrotation
    JOINT RightToe
    {
     OFFSET 0.000000 -10.035500 18.363100
     CHANNELS 3 Yrotation Xrotation Zrotation
     End Site
     {
      OFFSET 0.000000 -1.618500 7.239000
     }
    }
   }
  }
 }
 JOINT LeftHip
 {
  OFFSET 11.206700 0.306200 0.030900
  CHANNELS 3 Yrotation Xrotation Zrotation
  JOINT LeftKnee
  {
   OFFSET 0.000000 -57.334900 0.009400
   CHANNELS 3 Yrotation Xrotation Zrotation
   JOINT LeftAnkle
   {
    OFFSET 0.000000 -43.376200 0.036600
    CHANNELS 3 Yrotation Xrotation Zrotation
    JOINT LeftToe
    {
     OFFSET 0.000000 -10.035500 18.363100
     CHANNELS 3 Yrotation Xrotation Zrotation
     End Site
     {
      OFFSET 0.000000 -1.618500 7.239000
     }
    }
   }
  }
 }
}
MOTION
Frames: 11
Frame Time: 0.008333
0.000000 110.232800 0.000000 0.000000 -5.767877 0.000000 0.000000 11.653817 0.000000 0.000000 -5.885947 0.000000 0.000000 -0.000000 0.000000 0.000000 -0.000000 0.000000 0.000000 12.528835 0.000000 0.000000 0.711642 0.000000 0.000000 -0.000000 0.000000 0.000000 0.000000 -90.000000 0.000000 -2.309062 0.000000 0.000000 2.309062 0.000000 0.000000 -0.000000 0.000000 0.000000 -0.000000 90.000000 0.000000 -2.309062 0.000000 0.000000 2.309062 0.000000 0.000000 8.520406 0.000000 0.000000 1.905762 0.000000 -0.000000 -4.658285 0.000000 0.000000 -0.000000 0.000000 0.000000 8.520406 0.000000 0.000000 1.905762 0.000000 -0.000000 -4.658285 0.000000 0.000000 -0.000000 0.000000
-96.641950 64.598868 84.829003 172.816466 -37.508405 -2.345949 2.702260 22.251625 1.856216 0.308013 3.150654 0.354211 0.526461 5.095874 0.581630 2.301316 18.821439 2.445697 -0.013364 11.623404 -1.095142 0.491922 -14.178098 -2.142291 -2.515149 1.286606 -3.076125 -0.937031 -17.392022 2.696411 102.996372 -86.017469 -94.341970 -0.062701 -11.286703 -5.419644 -6.723625 2.422399 -0.842375 5.367890 -17.926730 2.685325 118.189234 -73.769006 -135.216323 -5.293361 -13.211123 26.587158 -3.407955 -43.319565 6.004226 -95.726826 85.699747 -90.131626 0.132589 -8.513195 -4.872763 0.438382 -0.767482 0.258061 -5.840068 -40.204606 4.326391 73.040711 82.818537 63.086931 -5.222174 -11.197465 6.938751 0.272034 0.912462 0.089480
-96.644258 64.599239 84.826409 172.835447 -37.483712 -2.362769 2.665070 22.243396 1.855183 0.323014 3.137126 0.352091 0.524628 5.093247 0.582539 2.280403 18.809710 2.454955 0.023444 11.613040 -1.099032 0.557578 -14.208068 -2.167068 -2.487876 1.236790 -3.082057 -0.980798 -17.359647 2.640054 114.697773 -85.910427 -105.964215 -0.095207 -11.267051 -5.505712 -6.705286 2.328072 -0.857496 5.476313 -17.933282 2.661407 120.437671 -73.265933 -137.626725 -5.272957 -13.150384 26.863692 -3.421864 -43.340649 6.008115 -95.781762 85.695203 -90.179901 0.137054 -8.518730 -4.877096 0.437269 -0.768439 0.260836 -5.866471 -40.228851 4.336884 73.021969 82.828582 63.065804 -5.220586 -11.191545 6.943424 0.265609 0.923191 0.098064
-96.645517 64.600805 84.823297 172.839306 -37.460555 -2.374034 2.652631 22.232098 1.864104 0.327410 3.128345 0.348188 0.523030 5.090727 0.583499 2.263220 18.801945 2.465308 0.054881 11.596275 -1.102070 0.610386 -14.248492 -2.195016 -2.463183 1.197214 -3.090562 -1.005355 -17.324925 2.606007 125.984713 -85.614130 -117.192069 -0.122387 -11.241697 -5.585269 -6.679522 2.230743 -0.871312 5.595922 -17.940142 2.633354 122.881865 -72.760123 -140.237947 -5.280808 -13.121959 26.984945 -3.417463 -43.358348 6.012550 -95.742423 85.695112 -90.128033 0.134492 -8.524665 -4.880631 0.434605 -0.763914 0.260088 -5.883307 -40.250969 4.351768 73.023897 82.830626 63.064796 -5.224233 -11.176502 6.950644 0.268759 0.937916 0.110718
-96.646669 64.603466 84.820179 172.833516 -37.437989 -2.377846 2.653254 22.215296 1.872173 0.308003 3.141264 0.361980 0.530516 5.079445 0.574688 2.255126 18.796051 2.474637 0.078992 11.564709 -1.111642 0.650526 -14.297695 -2.225362 -2.444246 1.180270 -3.113900 -1.113993 -17.317192 2.560472 136.573666 -85.208503 -127.640777 -0.143783 -11.206670 -5.646710 -6.650007 2.123054 -0.894328 5.706840 -17.937030 2.612838 125.363141 -72.224521 -142.886358 -5.298119 -13.130724 26.969645 -3.419024 -43.377712 6.024828 -95.707706 85.694336 -90.093296 0.135995 -8.521539 -4.879465 0.430074 -0.766617 0.255674 -5.891456 -40.269946 4.368085 72.986307 82.842890 63.018966 -5.219574 -11.164705 6.959682 0.275091 0.928385 0.110605
-96.646284 64.607909 84.816863 172.818286 -37.420688 -2.379651 2.663864 22.202535 1.885723 0.300346 3.143513 0.367736 0.517004 5.076869 0.591314 2.246987 18.778812 2.495800 0.096070 11.543157 -1.155254 0.680334 -14.348300 -2.255099 -2.423463 1.133309 -3.159531 -1.250311 -17.246501 2.511988 145.865075 -84.658682 -136.753661 -0.166971 -11.171639 -5.676479 -6.612131 2.025329 -0.955038 5.814452 -17.926352 2.601368 127.733063 -71.641782 -145.438557 -5.316602 -13.173343 26.853194 -3.416689 -43.391929 6.042884 -95.638296 85.691578 -90.024795 0.140944 -8.512556 -4.875562 0.426072 -0.772551 0.249337 -5.885022 -40.282177 4.385502 72.966101 82.853490 62.993646 -5.216390 -11.156249 6.969615 0.271622 0.930013 0.117567
-96.646378 64.613744 84.813709 172.815579 -37.406062 -2.384385 2.654190 22.199056 1.896068 0.302224 3.139981 0.365865 0.516690 5.070195 0.593752 2.248455 18.773648 2.496288 0.102684 11.520584 -1.157748 0.697050 -14.384714 -2.275514 -2.416431 1.082459 -3.164498 -1.393791 -17.163242 2.484581 153.469721 -83.981296 -144.174530 -0.206929 -11.149345 -5.662254 -6.582257 1.921887 -0.971034 5.950095 -17.916921 2.595424 129.865762 -71.007088 -147.802546 -5.323191 -13.244233 26.672972 -3.417771 -43.399168 6.056330 -95.527469 85.684572 -89.914201 0.137466 -8.510353 -4.871528 0.429339 -0.772790 0.244856 -5.882086 -40.290083 4.396980 72.908917 82.857712 62.931806 -5.221482 -11.143407 6.972763 0.279490 0.931959 0.130553
-96.645977 64.618315 84.814355 172.802590 -37.376895 -2.384955 2.646696 22.192705 1.904168 0.314841 3.122338 0.361303 0.515328 5.062992 0.596312 2.250237 18.770430 2.501112 0.104030 11.517056 -1.167226 0.701409 -14.396401 -2.281779 -2.410379 0.995477 -3.179131 -1.556660 -17.033604 2.470547 159.612217 -83.222141 -150.121798 -0.271053 -11.150867 -5.602613 -6.553765 1.815713 -0.985738 6.146110 -17.914500 2.592508 131.678198 -70.328614 -149.919355 -5.302675 -13.346936 26.460997 -3.417837 -43.425109 6.072821 -95.414534 85.680205 -89.801758 0.141410 -8.501018 -4.865446 0.426076 -0.776618 0.238409 -5.874376 -40.311842 4.414003 72.854398 82.860970 62.873671 -5.234427 -11.139853 6.978460 0.283943 0.950046 0.139582
-96.645479 64.620926 84.819529 172.779897 -37.329271 -2.381312 2.656343 22.152226 1.909696 0.322524 3.116044 0.361283 0.509227 5.054191 0.599042 2.260738 18.764080 2.513777 0.104154 11.496248 -1.174988 0.705177 -14.434815 -2.297438 -2.420754 0.940774 -3.204595 -1.722036 -16.926804 2.465382 164.485457 -82.408672 -154.801595 -0.352019 -11.175396 -5.508647 -6.536921 1.711120 -1.002904 6.407202 -17.921242 2.595020 133.136867 -69.616800 -151.755109 -5.258454 -13.486493 26.248521 -3.417559 -43.468382 6.101200 -95.214577 85.671768 -89.609763 0.144148 -8.500198 -4.856510 0.424560 -0.767226 0.233861 -5.850764 -40.348691 4.433886 72.752475 82.860655 62.765904 -5.247376 -11.145705 6.989155 0.283776 0.971573 0.149621
-96.644506 64.625570 84.823630 172.763581 -37.293350 -2.382619 2.660109 22.119369 1.914175 0.324501 3.114510 0.364274 0.507913 5.038207 0.597966 2.271479 18.754659 2.523673 0.102992 11.483004 -1.179672 0.698439 -14.488689 -2.306922 -2.433628 0.903611 -3.226725 -1.879761 -16.833101 2.464179 168.209003 -81.562089 -158.342732 -0.432581 -11.214844 -5.396032 -6.520640 1.607724 -1.016598 6.700927 -17.935108 2.614810 134.274976 -68.885157 -153.313966 -5.207362 -13.660445 26.067335 -3.422508 -43.498701 6.139081 -94.930537 85.659355 -89.345701 0.139147 -8.486988 -4.838590 0.423548 -0.766358 0.232043 -5.840461 -40.377461 4.454051 72.655071 82.860295 62.664757 -5.258016 -11.133654 6.999048 0.277692 0.974723 0.151419
-96.644153 64.632115 84.826229 172.752616 -37.270275 -2.383722 2.660941 22.096242 1.914830 0.310528 3.102191 0.363255 0.519271 5.030750 0.599287 2.269352 18.701212 2.538878 0.105158 11.520982 -1.191270 0.692415 -14.493626 -2.313319 -2.438507 0.910026 -3.256699 -2.021304 -16.746780 2.469404 170.850240 -80.706459 -160.820601 -0.501819 -11.268911 -5.273937 -6.492999 1.544961 -1.043779 6.970334 -17.951207 2.664373 135.213766 -68.151576 -154.663880 -5.155446 -13.856069 25.935609 -3.425192 -43.517436 6.162166 -94.734058 85.653297 -89.162314 0.142875 -8.471098 -4.821838 0.417533 -0.772499 0.225252 -5.828555 -40.393472 4.466571 72.558928 82.862067 62.569244 -5.271705 -11.121665 7.003555 0.280430 0.975864 0.155755
